<?xml version="1.0" standalone="no"?><!DOCTYPE svg PUBLIC "-//W3C//DTD SVG 1.1//EN" "http://www.w3.org/Graphics/SVG/1.1/DTD/svg11.dtd"><svg class="icon" height="512" viewBox="0 0 1024 1024" version="1.1" xmlns="http://www.w3.org/2000/svg"><path d="M393.846154 866.461538c0-64.984615 53.169231-118.153846 118.153846-118.153846s118.153846 53.169231 118.153846 118.153846-53.169231 118.153846-118.153846 118.153847-118.153846-53.169231-118.153846-118.153847z m0-354.461538c0-64.984615 53.169231-118.153846 118.153846-118.153846s118.153846 53.169231 118.153846 118.153846-53.169231 118.153846-118.153846 118.153846-118.153846-53.169231-118.153846-118.153846z m0-354.461538c0-64.984615 53.169231-118.153846 118.153846-118.153847s118.153846 53.169231 118.153846 118.153847-53.169231 118.153846-118.153846 118.153846-118.153846-53.169231-118.153846-118.153846z" /></svg>